<?xml version="1.0" encoding="UTF-8" standalone="no"?><!DOCTYPE svg PUBLIC "-//W3C//DTD SVG 1.1//EN" "http://www.w3.org/Graphics/SVG/1.1/DTD/svg11.dtd"><svg width="100%" height="100%" viewBox="0 0 1364 315" version="1.1" xmlns="http://www.w3.org/2000/svg" xmlns:xlink="http://www.w3.org/1999/xlink" xml:space="preserve" xmlns:serif="http://www.serif.com/" style="fill-rule:evenodd;clip-rule:evenodd;stroke-linejoin:round;stroke-miterlimit:1.41421;"><g><path d="M0,125.951l44.526,0c0.328,10.332 3.362,18.102 9.102,23.308c5.74,5.207 14.145,7.811 25.214,7.811c9.43,0 16.728,-1.558 21.894,-4.674c5.166,-3.116 7.749,-7.503 7.749,-13.161c0,-2.87 -0.615,-5.432 -1.845,-7.687c-1.23,-2.255 -2.952,-3.957 -5.166,-5.105c-3.362,-1.804 -11.603,-4.633 -24.723,-8.487c-13.119,-3.854 -24.189,-7.585 -33.209,-11.193c-13.038,-5.166 -22.94,-11.992 -29.705,-20.479c-6.765,-8.487 -10.147,-18.388 -10.147,-29.704c0,-17.302 6.498,-31.058 19.495,-41.267c12.997,-10.209 30.607,-15.313 52.828,-15.313c21.812,0 39.114,5.371 51.906,16.113c12.792,10.742 19.188,25.256 19.188,43.542l-43.665,0c-0.984,-8.446 -3.956,-14.678 -8.917,-18.696c-4.961,-4.018 -12.116,-6.027 -21.464,-6.027c-7.461,0 -13.529,1.537 -18.203,4.612c-4.674,3.075 -7.011,6.991 -7.011,11.747c0,8.036 11.111,15.621 33.332,22.754c4.018,1.312 7.093,2.296 9.225,2.952l1.845,0.615c22.96,7.462 37.31,13.489 43.05,18.081c5.822,4.756 10.25,10.353 13.284,16.79c3.034,6.437 4.551,13.591 4.551,21.463c0,18.04 -6.909,32.082 -20.725,42.127c-13.817,10.045 -33.19,15.068 -58.118,15.068c-23.533,0 -41.45,-5.392 -53.75,-16.175c-12.3,-10.783 -19.147,-27.121 -20.541,-49.015Z" style="fill:#ff5741;fill-rule:nonzero;"/><path d="M226.441,82.532l34.563,0c9.348,0 16.216,-1.722 20.603,-5.166c4.387,-3.444 6.58,-8.937 6.58,-16.481c0,-6.642 -2.132,-11.583 -6.396,-14.822c-4.264,-3.239 -10.783,-4.858 -19.557,-4.858l-35.793,0l0,41.327Zm-46.124,103.566l0,-181.178l86.714,0c22.96,0 39.872,4.1 50.737,12.3c10.865,8.2 16.298,20.91 16.298,38.13c0,10.168 -2.317,18.88 -6.95,26.137c-4.633,7.257 -11.828,13.345 -21.586,18.265c7.954,3.034 13.571,7.155 16.851,12.362c3.28,5.207 5.166,14.37 5.658,27.49c0.246,3.69 0.492,8.651 0.738,14.883c0.574,14.596 3.075,23.042 7.503,25.338l0,6.273l-48.585,0c-2.378,-6.396 -3.731,-15.17 -4.059,-26.322c-0.328,-11.152 -0.656,-18.163 -0.984,-21.033c-0.738,-7.052 -3.116,-12.218 -7.134,-15.498c-4.018,-3.28 -10.045,-4.92 -18.081,-4.92l-30.996,0l0,67.773l-46.124,0Z" style="fill:#ff5741;fill-rule:nonzero;"/><path d="M365.43,186.098l0,-181.178l45.633,0l0,69.125l64.452,-69.125l55.718,0l-73.307,76.136l75.029,105.042l-55.349,0l-50.922,-72.57l-15.621,15.621l0,56.949l-45.633,0Z" style="fill:#ff5741;fill-rule:nonzero;"/></g><g><path d="M64.434,314.668c-4.228,0 -8.028,-0.703 -11.399,-2.107c-3.372,-1.405 -6.248,-3.412 -8.63,-6.021c-2.381,-2.609 -4.208,-5.78 -5.479,-9.513c-1.271,-3.733 -1.906,-7.941 -1.906,-12.623c0,-4.656 0.642,-8.851 1.926,-12.584c1.285,-3.732 3.118,-6.903 5.499,-9.512c2.382,-2.609 5.258,-4.616 8.63,-6.021c3.372,-1.405 7.158,-2.107 11.359,-2.107c3.372,0 6.523,0.508 9.453,1.525c2.93,1.017 5.505,2.442 7.726,4.275c2.221,1.833 4.047,4.027 5.479,6.582c1.432,2.556 2.335,5.372 2.709,8.449l-11.921,0c-0.374,-1.605 -0.976,-3.05 -1.806,-4.335c-0.829,-1.284 -1.826,-2.388 -2.99,-3.311c-1.164,-0.923 -2.482,-1.632 -3.954,-2.127c-1.471,-0.495 -3.037,-0.743 -4.696,-0.743c-2.301,0 -4.375,0.462 -6.221,1.385c-1.847,0.923 -3.419,2.248 -4.717,3.974c-1.297,1.726 -2.301,3.813 -3.01,6.261c-0.709,2.449 -1.064,5.198 -1.064,8.249c0,3.104 0.348,5.886 1.044,8.348c0.696,2.462 1.699,4.556 3.01,6.282c1.312,1.726 2.897,3.05 4.757,3.974c1.859,0.923 3.94,1.384 6.241,1.384c3.425,0 6.315,-0.876 8.67,-2.629c2.355,-1.752 3.947,-4.181 4.776,-7.285l11.921,0c-0.454,3.104 -1.391,5.901 -2.809,8.389c-1.418,2.489 -3.225,4.609 -5.419,6.362c-2.194,1.753 -4.743,3.104 -7.646,4.054c-2.903,0.95 -6.081,1.425 -9.533,1.425Z" style="fill-opacity:0.588235;fill-rule:nonzero;"/><path d="M110.151,313.383l0,-47.924l-16.938,0l0,-9.995l46.038,0l0,9.995l-16.978,0l0,47.924l-12.122,0Z" style="fill-opacity:0.588235;fill-rule:nonzero;"/><path d="M170.118,254.461c4.281,0 8.148,0.695 11.6,2.087c3.451,1.391 6.388,3.385 8.81,5.98c2.421,2.596 4.281,5.747 5.579,9.453c1.298,3.706 1.947,7.86 1.947,12.463c0,4.602 -0.649,8.75 -1.947,12.443c-1.298,3.692 -3.158,6.836 -5.579,9.432c-2.422,2.596 -5.359,4.589 -8.81,5.981c-3.452,1.391 -7.319,2.087 -11.6,2.087c-4.309,0 -8.182,-0.696 -11.62,-2.087c-3.439,-1.392 -6.369,-3.385 -8.791,-5.981c-2.421,-2.596 -4.281,-5.74 -5.579,-9.432c-1.298,-3.693 -1.946,-7.841 -1.946,-12.443c0,-4.603 0.648,-8.757 1.946,-12.463c1.298,-3.706 3.158,-6.857 5.579,-9.453c2.422,-2.595 5.352,-4.589 8.791,-5.98c3.438,-1.392 7.311,-2.087 11.62,-2.087Zm0,10.115c-2.382,0 -4.529,0.461 -6.443,1.384c-1.913,0.923 -3.545,2.248 -4.896,3.974c-1.352,1.726 -2.395,3.813 -3.131,6.261c-0.736,2.449 -1.104,5.198 -1.104,8.249c0,3.024 0.368,5.76 1.104,8.208c0.736,2.449 1.779,4.529 3.131,6.242c1.351,1.712 2.983,3.03 4.896,3.953c1.914,0.923 4.061,1.385 6.443,1.385c2.354,0 4.495,-0.462 6.422,-1.385c1.926,-0.923 3.559,-2.241 4.897,-3.953c1.337,-1.713 2.374,-3.793 3.11,-6.242c0.736,-2.448 1.104,-5.184 1.104,-8.208c0,-3.051 -0.368,-5.8 -1.104,-8.249c-0.736,-2.448 -1.773,-4.535 -3.11,-6.261c-1.338,-1.726 -2.971,-3.051 -4.897,-3.974c-1.927,-0.923 -4.068,-1.384 -6.422,-1.384Z" style="fill-opacity:0.588235;fill-rule:nonzero;"/><path d="M243.249,313.383l0,-47.924l-16.898,0l-1.405,25.046c-0.214,3.746 -0.682,7.071 -1.405,9.974c-0.722,2.903 -1.766,5.352 -3.13,7.345c-1.365,1.994 -3.084,3.506 -5.158,4.536c-2.074,1.03 -4.556,1.545 -7.446,1.545c-0.99,0 -1.866,-0.06 -2.629,-0.18c-0.762,-0.121 -1.344,-0.248 -1.746,-0.382l0,-10.596c0.295,0.053 0.683,0.12 1.164,0.2c0.482,0.081 0.99,0.121 1.525,0.121c1.338,0 2.469,-0.288 3.392,-0.863c0.923,-0.575 1.686,-1.425 2.288,-2.549c0.602,-1.124 1.057,-2.522 1.365,-4.194c0.307,-1.673 0.515,-3.593 0.622,-5.76l1.726,-34.238l39.857,0l0,57.919l-12.122,0Z" style="fill-opacity:0.588235;fill-rule:nonzero;"/><path d="M305.142,274.209l-0.482,0l-26.29,39.174l-11.68,0l0,-57.919l12.081,0l0,39.215l0.482,0l26.29,-39.215l11.681,0l0,57.919l-12.082,0l0,-39.174Z" style="fill-opacity:0.588235;fill-rule:nonzero;"/><path d="M363.824,313.383l0,-24.925l-0.321,0c-1.793,1.605 -3.907,2.829 -6.342,3.672c-2.435,0.843 -5.111,1.265 -8.028,1.265c-3.184,0 -6.087,-0.509 -8.71,-1.526c-2.622,-1.016 -4.87,-2.461 -6.743,-4.335c-1.873,-1.873 -3.318,-4.127 -4.335,-6.763c-1.016,-2.636 -1.525,-5.586 -1.525,-8.85l0,-16.457l12.122,0l0,15.293c0,1.926 0.261,3.646 0.782,5.158c0.522,1.511 1.278,2.789 2.268,3.833c0.99,1.043 2.201,1.846 3.633,2.408c1.431,0.562 3.057,0.843 4.877,0.843c2.863,0 5.378,-0.589 7.546,-1.766c2.167,-1.178 3.759,-2.81 4.776,-4.897l0,-20.872l12.122,0l0,57.919l-12.122,0Z" style="fill-opacity:0.588235;fill-rule:nonzero;"/><path d="M425.034,313.383l0,-24.404l-26.089,0l0,24.404l-12.122,0l0,-57.919l12.122,0l0,23.521l26.089,0l0,-23.521l12.122,0l0,57.919l-12.122,0Z" style="fill-opacity:0.588235;fill-rule:nonzero;"/><path d="M498.848,313.383l0,-57.919l12.122,0l0,57.919l-12.122,0Zm-49.931,-57.919l12.121,0l0,19.427l11.239,0c3.05,0 5.84,0.462 8.369,1.385c2.528,0.923 4.709,2.227 6.542,3.913c1.833,1.686 3.251,3.713 4.255,6.081c1.003,2.368 1.505,4.984 1.505,7.847c0,2.89 -0.488,5.519 -1.465,7.887c-0.977,2.368 -2.348,4.395 -4.114,6.081c-1.766,1.686 -3.88,2.99 -6.342,3.914c-2.462,0.923 -5.178,1.384 -8.148,1.384l-23.962,0l0,-57.919Zm20.751,48.206c3.479,0 6.161,-0.814 8.048,-2.443c1.886,-1.629 2.829,-4.006 2.829,-7.13c0,-3.151 -0.949,-5.547 -2.849,-7.19c-1.9,-1.642 -4.589,-2.463 -8.068,-2.463l-8.59,0l0,19.226l8.63,0Z" style="fill-opacity:0.588235;fill-rule:nonzero;"/><path d="M540.913,239.61c0.027,1.016 0.207,1.94 0.542,2.769c0.334,0.83 0.803,1.539 1.405,2.127c0.602,0.589 1.318,1.044 2.147,1.365c0.83,0.321 1.753,0.482 2.77,0.482c0.99,0 1.906,-0.161 2.749,-0.482c0.843,-0.321 1.566,-0.776 2.168,-1.365c0.602,-0.588 1.07,-1.297 1.404,-2.127c0.335,-0.829 0.516,-1.753 0.542,-2.769l7.065,0c0,1.899 -0.342,3.612 -1.024,5.137c-0.682,1.526 -1.632,2.83 -2.85,3.914c-1.217,1.083 -2.682,1.92 -4.395,2.508c-1.712,0.589 -3.599,0.883 -5.659,0.883c-2.061,0 -3.947,-0.294 -5.66,-0.883c-1.712,-0.588 -3.177,-1.425 -4.395,-2.508c-1.217,-1.084 -2.167,-2.388 -2.85,-3.914c-0.682,-1.525 -1.023,-3.238 -1.023,-5.137l7.064,0Zm20.27,34.599l-0.482,0l-26.29,39.174l-11.68,0l0,-57.919l12.081,0l0,39.215l0.482,0l26.29,-39.215l11.68,0l0,57.919l-12.081,0l0,-39.174Z" style="fill-opacity:0.588235;fill-rule:nonzero;"/><path d="M625.966,255.464c2.97,0 5.686,0.475 8.148,1.425c2.461,0.95 4.575,2.288 6.341,4.014c1.767,1.726 3.138,3.813 4.115,6.261c0.976,2.449 1.465,5.158 1.465,8.128c0,2.971 -0.502,5.673 -1.505,8.108c-1.004,2.435 -2.422,4.522 -4.255,6.262c-1.833,1.739 -4.014,3.084 -6.543,4.034c-2.528,0.95 -5.318,1.425 -8.368,1.425l-11.44,0l0,18.262l-12.121,0l0,-57.919l24.163,0Zm-12.042,30.184l8.79,0c3.506,0 6.215,-0.883 8.128,-2.649c1.914,-1.766 2.87,-4.322 2.87,-7.666c0,-3.319 -0.95,-5.861 -2.85,-7.627c-1.899,-1.766 -4.602,-2.649 -8.107,-2.649l-8.831,0l0,20.591Z" style="fill-opacity:0.588235;fill-rule:nonzero;"/><path d="M692.755,313.383l-38.372,0l0,-57.919l38.372,0l0,9.995l-26.25,0l0,13.968l24.765,0l0,9.312l-24.765,0l0,14.61l26.25,0l0,10.034Z" style="fill-opacity:0.588235;fill-rule:nonzero;"/><path d="M764.081,313.383l-10.797,0l0,-39.094l-0.321,0l-15.735,38.532l-7.626,0l-15.734,-38.532l-0.321,0l0,39.094l-10.797,0l0,-57.919l14.048,0l16.457,41.061l0.321,0l16.456,-41.061l14.049,0l0,57.919Z" style="fill-opacity:0.588235;fill-rule:nonzero;"/><path d="M801.53,254.461c4.281,0 8.148,0.695 11.599,2.087c3.452,1.391 6.389,3.385 8.811,5.98c2.421,2.596 4.281,5.747 5.579,9.453c1.298,3.706 1.947,7.86 1.947,12.463c0,4.602 -0.649,8.75 -1.947,12.443c-1.298,3.692 -3.158,6.836 -5.579,9.432c-2.422,2.596 -5.359,4.589 -8.811,5.981c-3.451,1.391 -7.318,2.087 -11.599,2.087c-4.309,0 -8.182,-0.696 -11.62,-2.087c-3.439,-1.392 -6.369,-3.385 -8.791,-5.981c-2.421,-2.596 -4.281,-5.74 -5.579,-9.432c-1.298,-3.693 -1.947,-7.841 -1.947,-12.443c0,-4.603 0.649,-8.757 1.947,-12.463c1.298,-3.706 3.158,-6.857 5.579,-9.453c2.422,-2.595 5.352,-4.589 8.791,-5.98c3.438,-1.392 7.311,-2.087 11.62,-2.087Zm0,10.115c-2.382,0 -4.529,0.461 -6.443,1.384c-1.913,0.923 -3.545,2.248 -4.896,3.974c-1.352,1.726 -2.395,3.813 -3.131,6.261c-0.736,2.449 -1.104,5.198 -1.104,8.249c0,3.024 0.368,5.76 1.104,8.208c0.736,2.449 1.779,4.529 3.131,6.242c1.351,1.712 2.983,3.03 4.896,3.953c1.914,0.923 4.061,1.385 6.443,1.385c2.354,0 4.495,-0.462 6.422,-1.385c1.926,-0.923 3.559,-2.241 4.897,-3.953c1.337,-1.713 2.374,-3.793 3.11,-6.242c0.736,-2.448 1.104,-5.184 1.104,-8.208c0,-3.051 -0.368,-5.8 -1.104,-8.249c-0.736,-2.448 -1.773,-4.535 -3.11,-6.261c-1.338,-1.726 -2.971,-3.051 -4.897,-3.974c-1.927,-0.923 -4.068,-1.384 -6.422,-1.384Z" style="fill-opacity:0.588235;fill-rule:nonzero;"/><path d="M876.467,313.383l0,-24.404l-26.089,0l0,24.404l-12.122,0l0,-57.919l12.122,0l0,23.521l26.089,0l0,-23.521l12.122,0l0,57.919l-12.122,0Z" style="fill-opacity:0.588235;fill-rule:nonzero;"/><path d="M913.956,313.383l0,-47.924l-16.938,0l0,-9.995l46.038,0l0,9.995l-16.978,0l0,47.924l-12.122,0Z" style="fill-opacity:0.588235;fill-rule:nonzero;"/><path d="M1018.72,313.383l-15.132,0l-21.836,-25.447l-0.321,0l0,25.447l-12.121,0l0,-57.919l12.121,0l0,24.525l0.321,0l21.394,-24.525l13.687,0l-24.002,27.414l25.889,30.505Z" style="fill-opacity:0.588235;fill-rule:nonzero;"/><path d="M1024.78,313.383l0,-57.919l25.568,0c2.73,0 5.185,0.335 7.366,1.004c2.181,0.669 4.034,1.632 5.559,2.89c1.525,1.257 2.703,2.776 3.532,4.555c0.83,1.78 1.244,3.78 1.244,6.001c0,1.579 -0.281,3.077 -0.843,4.495c-0.561,1.419 -1.331,2.69 -2.308,3.813c-0.976,1.124 -2.127,2.054 -3.451,2.79c-1.325,0.736 -2.75,1.224 -4.275,1.465l0,0.321c1.953,0.161 3.766,0.616 5.439,1.365c1.672,0.749 3.117,1.746 4.335,2.99c1.217,1.244 2.167,2.683 2.849,4.315c0.683,1.632 1.024,3.412 1.024,5.338c0,2.542 -0.462,4.837 -1.385,6.884c-0.923,2.047 -2.254,3.786 -3.994,5.218c-1.739,1.432 -3.846,2.535 -6.321,3.311c-2.476,0.776 -5.252,1.164 -8.329,1.164l-26.01,0Zm12.122,-33.836l9.071,0c3.238,0 5.74,-0.676 7.506,-2.027c1.766,-1.351 2.649,-3.258 2.649,-5.72c0,-2.354 -0.776,-4.161 -2.328,-5.418c-1.552,-1.258 -3.746,-1.887 -6.582,-1.887l-10.316,0l0,15.052Zm10.797,24.805c3.506,0 6.175,-0.722 8.008,-2.167c1.833,-1.445 2.749,-3.559 2.749,-6.342c0,-2.729 -0.943,-4.796 -2.829,-6.201c-1.887,-1.405 -4.623,-2.108 -8.209,-2.108l-10.516,0l0,16.818l10.797,0Z" style="fill-opacity:0.588235;fill-rule:nonzero;"/><path d="M1111.92,299.335l-20.35,0l-4.415,14.048l-12.443,0l20.109,-57.919l14.249,0l20.15,57.919l-12.885,0l-4.415,-14.048Zm-17.741,-9.071l15.132,0l-7.425,-23.722l-0.281,0l-7.426,23.722Z" style="fill-opacity:0.588235;fill-rule:nonzero;"/><path d="M1160.08,255.464c2.97,0 5.686,0.475 8.148,1.425c2.462,0.95 4.576,2.288 6.342,4.014c1.766,1.726 3.137,3.813 4.114,6.261c0.977,2.449 1.465,5.158 1.465,8.128c0,2.971 -0.502,5.673 -1.505,8.108c-1.004,2.435 -2.422,4.522 -4.255,6.262c-1.833,1.739 -4.014,3.084 -6.542,4.034c-2.529,0.95 -5.319,1.425 -8.369,1.425l-11.439,0l0,18.262l-12.122,0l0,-57.919l24.163,0Zm-12.041,30.184l8.79,0c3.505,0 6.214,-0.883 8.128,-2.649c1.913,-1.766 2.87,-4.322 2.87,-7.666c0,-3.319 -0.95,-5.861 -2.85,-7.627c-1.9,-1.766 -4.603,-2.649 -8.108,-2.649l-8.83,0l0,20.591Z" style="fill-opacity:0.588235;fill-rule:nonzero;"/><path d="M1202.55,313.383l0,-47.924l-16.938,0l0,-9.995l46.038,0l0,9.995l-16.978,0l0,47.924l-12.122,0Z" style="fill-opacity:0.588235;fill-rule:nonzero;"/><path d="M1278.69,274.209l-0.482,0l-26.29,39.174l-11.68,0l0,-57.919l12.081,0l0,39.215l0.482,0l26.29,-39.215l11.68,0l0,57.919l-12.081,0l0,-39.174Z" style="fill-opacity:0.588235;fill-rule:nonzero;"/><path d="M1325.81,255.464c2.97,0 5.686,0.475 8.148,1.425c2.462,0.95 4.576,2.288 6.342,4.014c1.766,1.726 3.137,3.813 4.114,6.261c0.977,2.449 1.465,5.158 1.465,8.128c0,2.971 -0.502,5.673 -1.505,8.108c-1.004,2.435 -2.422,4.522 -4.255,6.262c-1.833,1.739 -4.014,3.084 -6.542,4.034c-2.529,0.95 -5.319,1.425 -8.369,1.425l-11.439,0l0,18.262l-12.122,0l0,-57.919l24.163,0Zm-12.041,30.184l8.79,0c3.505,0 6.215,-0.883 8.128,-2.649c1.913,-1.766 2.87,-4.322 2.87,-7.666c0,-3.319 -0.95,-5.861 -2.85,-7.627c-1.9,-1.766 -4.603,-2.649 -8.108,-2.649l-8.83,0l0,20.591Z" style="fill-opacity:0.588235;fill-rule:nonzero;"/></g><g><path d="M589.968,135.545c0.41,3.69 1.64,7.011 3.69,9.963c2.05,2.952 4.695,5.494 7.934,7.626c3.239,2.132 6.99,3.772 11.254,4.92c4.264,1.148 8.856,1.722 13.776,1.722c4.92,0 9.43,-0.554 13.53,-1.661c4.1,-1.107 7.626,-2.665 10.578,-4.674c2.952,-2.009 5.227,-4.387 6.826,-7.134c1.599,-2.746 2.399,-5.76 2.399,-9.04c0,-5.74 -2.317,-10.373 -6.95,-13.899c-4.633,-3.526 -12.279,-6.478 -22.939,-8.856l-23.124,-5.043c-32.554,-6.97 -48.83,-23.493 -48.83,-49.568c0,-8.2 1.681,-15.642 5.043,-22.325c3.361,-6.683 8.056,-12.402 14.083,-17.158c6.027,-4.756 13.181,-8.426 21.463,-11.009c8.282,-2.583 17.384,-3.874 27.306,-3.874c10.332,0 19.659,1.271 27.982,3.813c8.323,2.542 15.416,6.15 21.279,10.824c5.863,4.674 10.394,10.291 13.592,16.851c3.198,6.56 4.879,13.858 5.043,21.894l-34.809,0c-0.328,-3.772 -1.353,-7.134 -3.075,-10.086c-1.722,-2.952 -4.018,-5.474 -6.888,-7.565c-2.87,-2.091 -6.253,-3.69 -10.148,-4.797c-3.894,-1.107 -8.179,-1.66 -12.853,-1.66c-4.592,0 -8.774,0.533 -12.546,1.599c-3.772,1.066 -6.99,2.542 -9.655,4.428c-2.665,1.886 -4.736,4.182 -6.212,6.888c-1.476,2.706 -2.214,5.699 -2.214,8.979c0,5.494 2.276,9.922 6.827,13.284c4.551,3.361 11.951,6.19 22.201,8.486l21.525,4.551c8.856,1.886 16.502,4.285 22.939,7.196c6.437,2.911 11.747,6.396 15.929,10.455c4.182,4.059 7.257,8.774 9.225,14.145c1.968,5.371 2.952,11.418 2.952,18.142c0,8.61 -1.681,16.379 -5.043,23.308c-3.362,6.929 -8.159,12.833 -14.391,17.712c-6.232,4.879 -13.797,8.631 -22.694,11.255c-8.897,2.624 -18.839,3.936 -29.827,3.936c-10.66,0 -20.295,-1.23 -28.905,-3.69c-8.61,-2.46 -15.99,-6.007 -22.14,-10.64c-6.15,-4.633 -10.946,-10.25 -14.39,-16.851c-3.444,-6.601 -5.289,-14.083 -5.535,-22.447l35.792,0Z" style="fill-rule:nonzero;"/><path d="M762.905,186.098l0,-146.861l-51.905,0l0,-30.627l141.08,0l0,30.627l-52.029,0l0,146.861l-37.146,0Z" style="fill-rule:nonzero;"/><path d="M909.766,94.217l32.595,0c9.43,0 16.728,-2.501 21.894,-7.503c5.166,-5.002 7.749,-11.931 7.749,-20.786c0,-4.264 -0.697,-8.139 -2.091,-11.624c-1.394,-3.485 -3.383,-6.457 -5.966,-8.917c-2.583,-2.46 -5.74,-4.367 -9.471,-5.72c-3.731,-1.353 -7.892,-2.029 -12.484,-2.029l-32.226,0l0,56.579Zm0,91.881l-37.146,0l0,-177.488l73.308,0c10.168,0 19.249,1.312 27.244,3.936c7.995,2.624 14.719,6.375 20.172,11.254c5.453,4.879 9.615,10.804 12.484,17.774c2.87,6.97 4.305,14.842 4.305,23.616c0,5.658 -0.717,11.11 -2.152,16.358c-1.435,5.248 -3.526,10.045 -6.273,14.391c-2.747,4.346 -6.129,8.221 -10.147,11.624c-4.018,3.403 -8.569,6.088 -13.653,8.056l37.391,70.479l-42.065,0l-33.087,-64.944l-30.381,0l0,64.944Z" style="fill-rule:nonzero;"/><path d="M1114.56,5.535c13.12,0 24.969,2.132 35.546,6.396c10.578,4.264 19.578,10.373 26.999,18.327c7.421,7.954 13.12,17.609 17.097,28.966c3.977,11.357 5.965,24.087 5.965,38.191c0,14.104 -1.988,26.814 -5.965,38.13c-3.977,11.316 -9.676,20.951 -17.097,28.905c-7.421,7.954 -16.421,14.063 -26.999,18.327c-10.577,4.264 -22.426,6.396 -35.546,6.396c-13.202,0 -25.072,-2.132 -35.609,-6.396c-10.536,-4.264 -19.515,-10.373 -26.936,-18.327c-7.421,-7.954 -13.12,-17.589 -17.097,-28.905c-3.977,-11.316 -5.966,-24.026 -5.966,-38.13c0,-14.104 1.989,-26.834 5.966,-38.191c3.977,-11.357 9.676,-21.012 17.097,-28.966c7.421,-7.954 16.4,-14.063 26.936,-18.327c10.537,-4.264 22.407,-6.396 35.609,-6.396Zm0,30.996c-7.298,0 -13.879,1.414 -19.742,4.243c-5.863,2.829 -10.865,6.888 -15.006,12.177c-4.14,5.289 -7.338,11.685 -9.593,19.188c-2.255,7.503 -3.383,15.928 -3.383,25.276c0,9.266 1.128,17.651 3.383,25.154c2.255,7.503 5.453,13.878 9.593,19.126c4.141,5.248 9.143,9.286 15.006,12.115c5.863,2.829 12.444,4.244 19.742,4.244c7.216,0 13.776,-1.415 19.68,-4.244c5.904,-2.829 10.906,-6.867 15.005,-12.115c4.1,-5.248 7.278,-11.623 9.533,-19.126c2.255,-7.503 3.382,-15.888 3.382,-25.154c0,-9.348 -1.127,-17.773 -3.382,-25.276c-2.255,-7.503 -5.433,-13.899 -9.533,-19.188c-4.099,-5.289 -9.101,-9.348 -15.005,-12.177c-5.904,-2.829 -12.464,-4.243 -19.68,-4.243Z" style="fill-rule:nonzero;"/><path d="M1264,186.098l0,-66.297l-61.746,-111.191l40.467,0l39.729,75.767l0.861,0l39.851,-75.767l39.852,0l-61.869,111.191l0,66.297l-37.145,0Z" style="fill-rule:nonzero;"/></g></svg>